<?xml version="1.0" encoding="UTF-8"?>
<!DOCTYPE svg PUBLIC "-//W3C//DTD SVG 1.1//EN" "http://www.w3.org/Graphics/SVG/1.1/DTD/svg11.dtd">
<svg xmlns="http://www.w3.org/2000/svg" version="1.1" width="700px" height="420px" style="shape-rendering:geometricPrecision; text-rendering:geometricPrecision; image-rendering:optimizeQuality; fill-rule:evenodd; clip-rule:evenodd" xmlns:xlink="http://www.w3.org/1999/xlink">
<g><path style="opacity:1" fill="#dac3a5" d="M -0.5,-0.5 C 182.167,-0.5 364.833,-0.5 547.5,-0.5C 548.829,5.80184 549.663,12.1352 550,18.5C 547.269,20.9464 545.269,23.9464 544,27.5C 542.155,35.2146 540.155,42.8813 538,50.5C 536.587,53.6612 534.92,56.6612 533,59.5C 532.333,61.5 532.333,63.5 533,65.5C 539.775,75.0667 538.775,83.7334 530,91.5C 525.565,98.9822 524.231,106.982 526,115.5C 521.737,128.22 518.57,141.22 516.5,154.5C 518.893,165.12 524.226,173.954 532.5,181C 531.968,183.02 530.635,183.853 528.5,183.5C 531.511,195.037 534.344,206.704 537,218.5C 545.051,230.279 550.051,243.279 552,257.5C 555.523,261.832 558.356,266.499 560.5,271.5C 562.527,290.766 563.027,310.1 562,329.5C 561.196,332.146 559.696,334.146 557.5,335.5C 556.778,335.918 556.278,336.584 556,337.5C 557.244,353.008 553.244,367.008 544,379.5C 542.406,388.757 541.073,398.09 540,407.5C 538.119,411.307 536.953,415.307 536.5,419.5C 357.5,419.5 178.5,419.5 -0.5,419.5C -0.5,279.5 -0.5,139.5 -0.5,-0.5 Z"/></g>
<g><path style="opacity:1" fill="#594a46" d="M 547.5,-0.5 C 598.167,-0.5 648.833,-0.5 699.5,-0.5C 699.5,139.5 699.5,279.5 699.5,419.5C 645.167,419.5 590.833,419.5 536.5,419.5C 536.953,415.307 538.119,411.307 540,407.5C 541.073,398.09 542.406,388.757 544,379.5C 553.244,367.008 557.244,353.008 556,337.5C 556.278,336.584 556.778,335.918 557.5,335.5C 559.167,335.5 560.833,335.5 562.5,335.5C 563.608,314.853 563.774,294.187 563,273.5C 562.583,272.244 561.75,271.577 560.5,271.5C 558.356,266.499 555.523,261.832 552,257.5C 550.051,243.279 545.051,230.279 537,218.5C 534.344,206.704 531.511,195.037 528.5,183.5C 530.635,183.853 531.968,183.02 532.5,181C 524.226,173.954 518.893,165.12 516.5,154.5C 518.57,141.22 521.737,128.22 526,115.5C 524.231,106.982 525.565,98.9822 530,91.5C 538.775,83.7334 539.775,75.0667 533,65.5C 532.333,63.5 532.333,61.5 533,59.5C 534.92,56.6612 536.587,53.6612 538,50.5C 540.155,42.8813 542.155,35.2146 544,27.5C 545.269,23.9464 547.269,20.9464 550,18.5C 549.663,12.1352 548.829,5.80184 547.5,-0.5 Z"/></g>
<g><path style="opacity:1" fill="#b18967" d="M 91.5,51.5 C 90.2438,51.4614 89.2438,51.9614 88.5,53C 91.1164,53.8962 93.4498,55.2295 95.5,57C 94.9293,58.5991 93.9293,59.7658 92.5,60.5C 88.6266,58.9634 85.2932,56.63 82.5,53.5C 84.0777,52.7022 85.7444,52.2022 87.5,52C 84.5321,51.8305 81.6988,51.6638 79,51.5C 77.6485,54.7519 78.1485,57.9186 80.5,61C 74.7973,59.7727 73.4639,56.606 76.5,51.5C 76.3764,50.8933 76.0431,50.56 75.5,50.5C 76.512,48.124 78.3454,47.124 81,47.5C 84.8402,48.1654 88.3402,49.4987 91.5,51.5 Z"/></g>
<g><path style="opacity:1" fill="#a98363" d="M 95.5,53.5 C 99.5055,54.4977 102.839,56.4977 105.5,59.5C 105.062,59.4346 104.728,59.6012 104.5,60C 107.81,61.7463 108.81,64.2463 107.5,67.5C 104.349,68.0924 101.349,68.4257 98.5,68.5C 97.3473,67.6868 97.3473,66.6868 98.5,65.5C 99.7757,64.3554 101.109,64.3554 102.5,65.5C 103.5,65.1667 104.167,64.5 104.5,63.5C 102.393,61.2733 100.06,59.2733 97.5,57.5C 97.7093,56.914 98.0426,56.414 98.5,56C 97.0577,55.6232 96.0577,54.7899 95.5,53.5 Z"/></g>
<g><path style="opacity:1" fill="#9c7554" d="M 75.5,50.5 C 76.0431,50.56 76.3764,50.8933 76.5,51.5C 73.4639,56.606 74.7973,59.7727 80.5,61C 78.1485,57.9186 77.6485,54.7519 79,51.5C 81.6988,51.6638 84.5321,51.8305 87.5,52C 85.7444,52.2022 84.0777,52.7022 82.5,53.5C 85.2932,56.63 88.6266,58.9634 92.5,60.5C 93.4293,61.3149 94.4293,62.1482 95.5,63C 89.8173,61.8989 84.984,59.0656 81,54.5C 81.9094,57.7674 84.076,60.2674 87.5,62C 85.4731,61.5022 83.4731,61.6689 81.5,62.5C 88.6528,69.5544 97.3195,72.8877 107.5,72.5C 107.5,71.5 107.5,70.5 107.5,69.5C 104.391,69.7359 101.391,69.4025 98.5,68.5C 101.349,68.4257 104.349,68.0924 107.5,67.5C 108.81,64.2463 107.81,61.7463 104.5,60C 104.728,59.6012 105.062,59.4346 105.5,59.5C 107.899,60.8982 109.566,62.8982 110.5,65.5C 109.943,70.1769 109.277,74.8436 108.5,79.5C 106.974,79.9943 105.641,80.661 104.5,81.5C 103.005,81.0113 101.671,80.3446 100.5,79.5C 102.199,79.6602 103.866,79.4935 105.5,79C 103.1,78.8142 100.766,78.3142 98.5,77.5C 99.0253,76.8076 99.6919,76.3076 100.5,76C 100.167,75.6667 99.8333,75.3333 99.5,75C 101.902,74.3221 104.068,74.8221 106,76.5C 107.762,76.0556 107.595,75.5556 105.5,75C 106.167,74.6667 106.833,74.3333 107.5,74C 103.961,73.7181 100.461,73.2181 97,72.5C 95.9895,72.8919 95.4895,73.5585 95.5,74.5C 88.758,70.7962 81.758,67.6296 74.5,65C 74.8333,64.6667 75.1667,64.3333 75.5,64C 73.9286,61.5671 73.0952,59.0671 73,56.5C 71.6667,57.1667 70.6667,58.1667 70,59.5C 68.8932,58.2881 68.3932,58.6214 68.5,60.5C 67.4633,58.5072 67.7966,56.5072 69.5,54.5C 71.2903,52.6843 73.2903,51.3509 75.5,50.5 Z"/></g>
<g><path style="opacity:1" fill="#b18b6d" d="M 100.5,79.5 C 98.8333,79.5 97.1667,79.5 95.5,79.5C 93.0347,79.233 90.7014,78.5664 88.5,77.5C 80.8131,74.3205 74.1465,69.6538 68.5,63.5C 68.5,62.5 68.5,61.5 68.5,60.5C 68.3932,58.6214 68.8932,58.2881 70,59.5C 70.6667,58.1667 71.6667,57.1667 73,56.5C 73.0952,59.0671 73.9286,61.5671 75.5,64C 75.1667,64.3333 74.8333,64.6667 74.5,65C 81.758,67.6296 88.758,70.7962 95.5,74.5C 95.4895,73.5585 95.9895,72.8919 97,72.5C 100.461,73.2181 103.961,73.7181 107.5,74C 106.833,74.3333 106.167,74.6667 105.5,75C 107.595,75.5556 107.762,76.0556 106,76.5C 104.068,74.8221 101.902,74.3221 99.5,75C 99.8333,75.3333 100.167,75.6667 100.5,76C 99.6919,76.3076 99.0253,76.8076 98.5,77.5C 100.766,78.3142 103.1,78.8142 105.5,79C 103.866,79.4935 102.199,79.6602 100.5,79.5 Z"/></g>
<g><path style="opacity:1" fill="#c09371" d="M 91.5,51.5 C 93.153,51.6596 94.4863,52.3263 95.5,53.5C 96.0577,54.7899 97.0577,55.6232 98.5,56C 98.0426,56.414 97.7093,56.914 97.5,57.5C 100.06,59.2733 102.393,61.2733 104.5,63.5C 104.167,64.5 103.5,65.1667 102.5,65.5C 101.109,64.3554 99.7757,64.3554 98.5,65.5C 97.3473,66.6868 97.3473,67.6868 98.5,68.5C 101.391,69.4025 104.391,69.7359 107.5,69.5C 107.5,70.5 107.5,71.5 107.5,72.5C 97.3195,72.8877 88.6528,69.5544 81.5,62.5C 83.4731,61.6689 85.4731,61.5022 87.5,62C 84.076,60.2674 81.9094,57.7674 81,54.5C 84.984,59.0656 89.8173,61.8989 95.5,63C 94.4293,62.1482 93.4293,61.3149 92.5,60.5C 93.9293,59.7658 94.9293,58.5991 95.5,57C 93.4498,55.2295 91.1164,53.8962 88.5,53C 89.2438,51.9614 90.2438,51.4614 91.5,51.5 Z"/></g>
<g><path style="opacity:1" fill="#9e846e" d="M 66.5,68.5 C 65.833,70.8194 65.6664,73.1527 66,75.5C 68.7517,78.4529 71.9184,80.7863 75.5,82.5C 79.9459,85.2258 84.6126,87.7258 89.5,90C 92.592,90.7358 95.592,90.5691 98.5,89.5C 98.3465,91.9699 97.3465,93.9699 95.5,95.5C 95.5,94.5 95.5,93.5 95.5,92.5C 92.7212,92.7214 90.0545,92.388 87.5,91.5C 78.6747,87.8211 70.8413,82.4878 64,75.5C 63.3299,78.1739 62.1632,80.5073 60.5,82.5C 61.1615,77.1583 63.1615,72.4916 66.5,68.5 Z"/></g>
<g><path style="opacity:1" fill="#f6f2eb" d="M 68.5,63.5 C 74.1465,69.6538 80.8131,74.3205 88.5,77.5C 88.8807,78.9311 89.8807,79.7645 91.5,80C 90.6721,80.9147 89.6721,81.5814 88.5,82C 84.2257,81.6352 79.8924,81.8018 75.5,82.5C 71.9184,80.7863 68.7517,78.4529 66,75.5C 65.6664,73.1527 65.833,70.8194 66.5,68.5C 67.5375,67.0697 68.2041,65.403 68.5,63.5 Z"/></g>
<g><path style="opacity:1" fill="#e3ddd8" d="M 88.5,77.5 C 90.7014,78.5664 93.0347,79.233 95.5,79.5C 97.663,80.4691 99.9963,81.3024 102.5,82C 100.506,84.1575 99.1723,86.6575 98.5,89.5C 95.592,90.5691 92.592,90.7358 89.5,90C 84.6126,87.7258 79.9459,85.2258 75.5,82.5C 79.8924,81.8018 84.2257,81.6352 88.5,82C 89.6721,81.5814 90.6721,80.9147 91.5,80C 89.8807,79.7645 88.8807,78.9311 88.5,77.5 Z"/></g>
<g><path style="opacity:1" fill="#9f9283" d="M 95.5,79.5 C 97.1667,79.5 98.8333,79.5 100.5,79.5C 101.671,80.3446 103.005,81.0113 104.5,81.5C 102.789,84.5223 100.789,87.1889 98.5,89.5C 99.1723,86.6575 100.506,84.1575 102.5,82C 99.9963,81.3024 97.663,80.4691 95.5,79.5 Z"/></g>
<g><path style="opacity:1" fill="#c69c79" d="M 87.5,91.5 C 84.9212,92.6562 82.2545,93.6562 79.5,94.5C 78.8431,89.9365 76.8431,89.6032 73.5,93.5C 71.4954,90.9722 69.8287,91.3055 68.5,94.5C 69.6888,95.4287 71.0222,95.762 72.5,95.5C 72.5271,97.1993 73.1938,98.5326 74.5,99.5C 73.3473,100.313 73.3473,101.313 74.5,102.5C 76.1446,103.696 77.8113,104.696 79.5,105.5C 74.6376,105.212 70.3043,103.546 66.5,100.5C 65.8933,100.624 65.56,100.957 65.5,101.5C 62.205,99.8589 59.205,97.8589 56.5,95.5C 56.4356,90.6555 57.769,86.3222 60.5,82.5C 62.1632,80.5073 63.3299,78.1739 64,75.5C 70.8413,82.4878 78.6747,87.8211 87.5,91.5 Z"/></g>
<g><path style="opacity:1" fill="#cfb399" d="M 79.5,94.5 C 81.1506,95.547 82.8172,96.7137 84.5,98C 83.6008,99.2362 82.4341,100.07 81,100.5C 78.6995,99.7479 76.5328,99.4145 74.5,99.5C 73.1938,98.5326 72.5271,97.1993 72.5,95.5C 71.0222,95.762 69.6888,95.4287 68.5,94.5C 69.8287,91.3055 71.4954,90.9722 73.5,93.5C 76.8431,89.6032 78.8431,89.9365 79.5,94.5 Z"/></g>
<g><path style="opacity:1" fill="#9e8f7e" d="M 56.5,95.5 C 55.7033,99.2232 54.7033,102.89 53.5,106.5C 52.4017,105.399 52.235,104.066 53,102.5C 53.8984,99.9309 55.065,97.5976 56.5,95.5 Z"/></g>
<g><path style="opacity:1" fill="#9d826c" d="M 79.5,105.5 C 81.9986,107.124 84.6653,107.457 87.5,106.5C 86.5398,108.461 85.2065,110.127 83.5,111.5C 83.4142,110.504 83.7476,109.671 84.5,109C 79.2342,108.268 74.2342,106.768 69.5,104.5C 68.1667,103.5 66.8333,102.5 65.5,101.5C 65.56,100.957 65.8933,100.624 66.5,100.5C 70.3043,103.546 74.6376,105.212 79.5,105.5 Z"/></g>
<g><path style="opacity:1" fill="#b78963" d="M 87.5,91.5 C 90.0545,92.388 92.7212,92.7214 95.5,92.5C 95.5,93.5 95.5,94.5 95.5,95.5C 93.5749,99.7507 90.9082,103.417 87.5,106.5C 84.6653,107.457 81.9986,107.124 79.5,105.5C 77.8113,104.696 76.1446,103.696 74.5,102.5C 73.3473,101.313 73.3473,100.313 74.5,99.5C 76.5328,99.4145 78.6995,99.7479 81,100.5C 82.4341,100.07 83.6008,99.2362 84.5,98C 82.8172,96.7137 81.1506,95.547 79.5,94.5C 82.2545,93.6562 84.9212,92.6562 87.5,91.5 Z"/></g>
<g><path style="opacity:1" fill="#f3eeec" d="M 56.5,95.5 C 59.205,97.8589 62.205,99.8589 65.5,101.5C 66.8333,102.5 68.1667,103.5 69.5,104.5C 70.1223,106.335 71.4556,107.502 73.5,108C 72.2068,108.49 70.8734,108.657 69.5,108.5C 69.67,109.822 69.3366,110.989 68.5,112C 69.1667,112.333 69.8333,112.667 70.5,113C 68.3313,113.429 66.3313,112.929 64.5,111.5C 63.7025,111.957 63.3691,112.624 63.5,113.5C 59.6135,111.945 56.2802,109.612 53.5,106.5C 54.7033,102.89 55.7033,99.2232 56.5,95.5 Z"/></g>
<g><path style="opacity:1" fill="#e5e0dc" d="M 69.5,104.5 C 74.2342,106.768 79.2342,108.268 84.5,109C 83.7476,109.671 83.4142,110.504 83.5,111.5C 81.1782,112.802 79.8449,114.802 79.5,117.5C 75.7657,117.677 72.0991,117.344 68.5,116.5C 66.7392,115.687 65.0725,114.687 63.5,113.5C 63.3691,112.624 63.7025,111.957 64.5,111.5C 66.3313,112.929 68.3313,113.429 70.5,113C 69.8333,112.667 69.1667,112.333 68.5,112C 69.3366,110.989 69.67,109.822 69.5,108.5C 70.8734,108.657 72.2068,108.49 73.5,108C 71.4556,107.502 70.1223,106.335 69.5,104.5 Z"/></g>
<g><path style="opacity:1" fill="#988c7a" d="M 83.5,111.5 C 82.6597,113.853 81.3264,115.853 79.5,117.5C 79.8449,114.802 81.1782,112.802 83.5,111.5 Z"/></g>
<g><path style="opacity:1" fill="#a99a88" d="M 68.5,116.5 C 72.0991,117.344 75.7657,117.677 79.5,117.5C 78.376,118.809 76.876,119.475 75,119.5C 71.7852,119.235 69.6185,118.235 68.5,116.5 Z"/></g>
<g><path style="opacity:1" fill="#d6c0a5" d="M 272.5,127.5 C 275.478,128.981 277.644,131.314 279,134.5C 279.516,140.218 279.516,145.885 279,151.5C 282.439,144.072 282.105,136.739 278,129.5C 277.005,128.934 276.172,128.267 275.5,127.5C 278.364,127.064 280.697,127.897 282.5,130C 282.043,130.414 281.709,130.914 281.5,131.5C 282.189,133.444 282.689,135.444 283,137.5C 283.333,136.833 283.667,136.167 284,135.5C 284.457,138.796 285.291,141.963 286.5,145C 285.663,146.011 285.33,147.178 285.5,148.5C 285.5,148.833 285.5,149.167 285.5,149.5C 282.553,150.781 280.219,152.781 278.5,155.5C 277.042,153.145 275.708,153.478 274.5,156.5C 272.071,155.735 270.738,154.069 270.5,151.5C 271.135,147.581 271.468,143.581 271.5,139.5C 271.636,135.321 271.136,131.321 270,127.5C 267.891,128.035 267.391,129.035 268.5,130.5C 267.975,131.192 267.308,131.692 266.5,132C 267.658,133.009 268.325,134.342 268.5,136C 268.555,139.147 267.555,141.814 265.5,144C 267.201,146.292 268.534,148.792 269.5,151.5C 269.489,153.017 268.823,154.184 267.5,155C 270.279,155.149 270.779,155.983 269,157.5C 265.69,155.854 263.023,153.52 261,150.5C 259.71,145.89 259.376,141.223 260,136.5C 261.356,133.671 262.856,131.004 264.5,128.5C 266.799,126.231 269.466,125.898 272.5,127.5 Z"/></g>
<g><path style="opacity:1" fill="#735f56" d="M 270.5,151.5 C 270.167,151.5 269.833,151.5 269.5,151.5C 268.534,148.792 267.201,146.292 265.5,144C 267.555,141.814 268.555,139.147 268.5,136C 268.325,134.342 267.658,133.009 266.5,132C 267.308,131.692 267.975,131.192 268.5,130.5C 267.391,129.035 267.891,128.035 270,127.5C 271.136,131.321 271.636,135.321 271.5,139.5C 271.468,143.581 271.135,147.581 270.5,151.5 Z"/></g>
<g><path style="opacity:1" fill="#9c856d" d="M 272.5,127.5 C 273.5,127.5 274.5,127.5 275.5,127.5C 276.172,128.267 277.005,128.934 278,129.5C 282.105,136.739 282.439,144.072 279,151.5C 279.516,145.885 279.516,140.218 279,134.5C 277.644,131.314 275.478,128.981 272.5,127.5 Z"/></g>
<g><path style="opacity:1" fill="#9d896b" d="M 285.5,149.5 C 285.5,149.167 285.5,148.833 285.5,148.5C 289.77,146.85 294.103,145.684 298.5,145C 294.318,146.961 289.985,148.461 285.5,149.5 Z"/></g>
<g><path style="opacity:1" fill="#9e896e" d="M 285.5,149.5 C 285.586,150.496 285.252,151.329 284.5,152C 282.595,153.421 280.595,154.588 278.5,155.5C 280.219,152.781 282.553,150.781 285.5,149.5 Z"/></g>
<g><path style="opacity:1" fill="#b5a187" d="M 278.5,155.5 C 277.434,157.701 276.767,160.035 276.5,162.5C 276.414,163.496 276.748,164.329 277.5,165C 276.584,165.278 275.918,165.778 275.5,166.5C 275.098,163.523 274.098,160.857 272.5,158.5C 273.167,157.833 273.833,157.167 274.5,156.5C 275.708,153.478 277.042,153.145 278.5,155.5 Z"/></g>
<g><path style="opacity:1" fill="#8d785f" d="M 264.5,128.5 C 262.856,131.004 261.356,133.671 260,136.5C 259.376,141.223 259.71,145.89 261,150.5C 263.023,153.52 265.69,155.854 269,157.5C 270.779,155.983 270.279,155.149 267.5,155C 268.823,154.184 269.489,153.017 269.5,151.5C 269.833,151.5 270.167,151.5 270.5,151.5C 270.738,154.069 272.071,155.735 274.5,156.5C 273.833,157.167 273.167,157.833 272.5,158.5C 264.756,159.594 260.256,156.26 259,148.5C 258.333,144.167 258.333,139.833 259,135.5C 259.935,132.405 261.769,130.071 264.5,128.5 Z"/></g>
<g><path style="opacity:1" fill="#7c6654" d="M 279.5,168.5 C 280.152,169.725 281.319,170.392 283,170.5C 285.663,169.033 288.329,168.033 291,167.5C 291.671,168.252 292.504,168.586 293.5,168.5C 292.653,169.966 291.32,170.8 289.5,171C 285.833,171.667 282.167,171.667 278.5,171C 276.859,169.871 275.859,168.371 275.5,166.5C 275.918,165.778 276.584,165.278 277.5,165C 276.748,164.329 276.414,163.496 276.5,162.5C 278.886,161.627 280.886,160.127 282.5,158C 286.612,156.905 289.945,154.572 292.5,151C 294.78,150.767 296.78,149.934 298.5,148.5C 299.308,148.808 299.975,149.308 300.5,150C 299.636,151.137 298.636,152.47 297.5,154C 290.071,157.084 283.404,161.417 277.5,167C 278.044,167.717 278.711,168.217 279.5,168.5 Z"/></g>
<g><path style="opacity:1" fill="#85715b" d="M 297.5,165.5 C 297.833,164.167 298.167,162.833 298.5,161.5C 301.854,159.339 303.521,156.172 303.5,152C 303.297,149.594 302.297,147.594 300.5,146C 301.996,145.493 303.163,145.993 304,147.5C 305.67,154.998 303.503,160.998 297.5,165.5 Z"/></g>
<g><path style="opacity:1" fill="#a38e79" d="M 298.5,161.5 C 298.167,162.833 297.833,164.167 297.5,165.5C 296.738,167.262 295.404,168.262 293.5,168.5C 292.504,168.586 291.671,168.252 291,167.5C 288.329,168.033 285.663,169.033 283,170.5C 281.319,170.392 280.152,169.725 279.5,168.5C 286.574,168.233 292.574,165.566 297.5,160.5C 298.107,160.624 298.44,160.957 298.5,161.5 Z"/></g>
<g><path style="opacity:1" fill="#dbc6ac" d="M 479.5,325.5 C 478.048,319.218 474.048,315.384 467.5,314C 463.247,313.8 459.08,313.3 455,312.5C 451.757,314.263 448.257,314.929 444.5,314.5C 444.657,315.873 444.49,317.207 444,318.5C 442.574,320.766 440.74,322.432 438.5,323.5C 435.683,317.721 436.016,312.054 439.5,306.5C 445.224,310.846 451.224,311.346 457.5,308C 454.381,306.595 451.048,306.095 447.5,306.5C 447.5,305.5 447.5,304.5 447.5,303.5C 444.102,303.82 440.768,303.487 437.5,302.5C 439.171,300.49 439.838,298.157 439.5,295.5C 452.838,294.499 466.172,293.499 479.5,292.5C 482.547,301.198 483.88,310.198 483.5,319.5C 487.514,319.334 491.514,319.501 495.5,320C 492.498,321.281 489.665,322.781 487,324.5C 484.896,322.262 482.562,321.262 480,321.5C 479.51,322.793 479.343,324.127 479.5,325.5 Z"/></g>
<g><path style="opacity:1" fill="#5e4b3e" d="M 560.5,271.5 C 561.75,271.577 562.583,272.244 563,273.5C 563.774,294.187 563.608,314.853 562.5,335.5C 560.833,335.5 559.167,335.5 557.5,335.5C 559.696,334.146 561.196,332.146 562,329.5C 563.027,310.1 562.527,290.766 560.5,271.5 Z"/></g>
<g><path style="opacity:1" fill="#b87c5b" d="M 474.5,321.5 C 473.646,322.632 473.646,323.965 474.5,325.5C 473.034,326.347 472.2,327.68 472,329.5C 471.502,332.817 471.335,336.15 471.5,339.5C 471.586,340.496 471.252,341.329 470.5,342C 468.14,343.18 465.807,344.347 463.5,345.5C 463.736,343.027 465.069,341.36 467.5,340.5C 466.717,338.712 465.384,337.712 463.5,337.5C 463.5,337.167 463.5,336.833 463.5,336.5C 464.209,335.596 465.209,335.263 466.5,335.5C 467.857,334.41 468.857,333.076 469.5,331.5C 470.979,328.857 470.646,326.357 468.5,324C 464.243,323.628 460.076,322.795 456,321.5C 452.93,321.851 449.93,322.517 447,323.5C 446.098,323.257 445.265,322.923 444.5,322.5C 447.822,317.424 452.656,315.091 459,315.5C 465.033,315.439 470.199,317.439 474.5,321.5 Z"/></g>
<g><path style="opacity:1" fill="#d7bda8" d="M 479.5,325.5 C 479.5,325.833 479.5,326.167 479.5,326.5C 479.5,326.833 479.5,327.167 479.5,327.5C 479.806,330.385 479.473,333.052 478.5,335.5C 479.396,330.085 478.063,325.418 474.5,321.5C 470.199,317.439 465.033,315.439 459,315.5C 452.656,315.091 447.822,317.424 444.5,322.5C 440.276,326.506 438.609,331.506 439.5,337.5C 439.167,337.5 438.833,337.5 438.5,337.5C 437.778,337.082 437.278,336.416 437,335.5C 433.782,342.239 432.949,349.239 434.5,356.5C 434.491,358.308 434.991,359.975 436,361.5C 438.127,363.114 439.627,365.114 440.5,367.5C 438.833,367.5 437.167,367.5 435.5,367.5C 433.875,361.912 432.542,356.245 431.5,350.5C 431.924,344.111 432.757,337.778 434,331.5C 434.652,329.277 436.152,328.11 438.5,328C 438.034,326.701 438.034,325.201 438.5,323.5C 440.74,322.432 442.574,320.766 444,318.5C 444.49,317.207 444.657,315.873 444.5,314.5C 448.257,314.929 451.757,314.263 455,312.5C 459.08,313.3 463.247,313.8 467.5,314C 474.048,315.384 478.048,319.218 479.5,325.5 Z"/></g>
<g><path style="opacity:1" fill="#be896c" d="M 469.5,331.5 C 469.919,328.675 468.919,326.509 466.5,325C 461.982,324.565 457.649,323.898 453.5,323C 453,323.5 452.5,324 452,324.5C 448.845,335.501 452.678,339.834 463.5,337.5C 465.384,337.712 466.717,338.712 467.5,340.5C 465.069,341.36 463.736,343.027 463.5,345.5C 460.102,345.82 456.768,345.487 453.5,344.5C 457.095,343.748 460.428,342.414 463.5,340.5C 460.522,339.351 457.522,339.351 454.5,340.5C 452.796,338.151 450.463,337.151 447.5,337.5C 447.665,333.818 447.499,330.152 447,326.5C 445.701,327.09 444.868,328.09 444.5,329.5C 445.342,332.53 445.842,335.53 446,338.5C 442.797,331.166 441.464,331.166 442,338.5C 442.608,340.066 443.442,341.4 444.5,342.5C 444.5,343.167 444.5,343.833 444.5,344.5C 442.588,342.343 440.921,340.009 439.5,337.5C 438.609,331.506 440.276,326.506 444.5,322.5C 445.265,322.923 446.098,323.257 447,323.5C 449.93,322.517 452.93,321.851 456,321.5C 460.076,322.795 464.243,323.628 468.5,324C 470.646,326.357 470.979,328.857 469.5,331.5 Z"/></g>
<g><path style="opacity:1" fill="#ddc5be" d="M 466.5,335.5 C 465.209,335.263 464.209,335.596 463.5,336.5C 460.482,336.665 457.482,336.498 454.5,336C 454.781,332.983 454.781,329.817 454.5,326.5C 458.182,326.335 461.848,326.501 465.5,327C 466.444,329.719 466.777,332.552 466.5,335.5 Z"/></g>
<g><path style="opacity:1" fill="#dfbeae" d="M 469.5,331.5 C 468.857,333.076 467.857,334.41 466.5,335.5C 466.777,332.552 466.444,329.719 465.5,327C 461.848,326.501 458.182,326.335 454.5,326.5C 454.781,329.817 454.781,332.983 454.5,336C 457.482,336.498 460.482,336.665 463.5,336.5C 463.5,336.833 463.5,337.167 463.5,337.5C 452.678,339.834 448.845,335.501 452,324.5C 452.5,324 453,323.5 453.5,323C 457.649,323.898 461.982,324.565 466.5,325C 468.919,326.509 469.919,328.675 469.5,331.5 Z"/></g>
<g><path style="opacity:1" fill="#a1654d" d="M 474.5,321.5 C 478.063,325.418 479.396,330.085 478.5,335.5C 478.539,338.089 477.539,340.089 475.5,341.5C 476.376,338.201 476.543,334.868 476,331.5C 475.617,332.056 475.117,332.389 474.5,332.5C 474.5,330.167 474.5,327.833 474.5,325.5C 473.646,323.965 473.646,322.632 474.5,321.5 Z"/></g>
<g><path style="opacity:1" fill="#c37753" d="M 474.5,325.5 C 474.5,327.833 474.5,330.167 474.5,332.5C 474.448,335.346 473.448,337.68 471.5,339.5C 471.335,336.15 471.502,332.817 472,329.5C 472.2,327.68 473.034,326.347 474.5,325.5 Z"/></g>
<g><path style="opacity:1" fill="#bdaa9b" d="M 479.5,327.5 C 479.5,327.167 479.5,326.833 479.5,326.5C 483.257,326.071 486.757,326.737 490,328.5C 489.204,337.432 488.537,346.432 488,355.5C 482.547,367.145 473.38,373.145 460.5,373.5C 460.5,374.5 460.5,375.5 460.5,376.5C 456.882,375.462 453.215,374.295 449.5,373C 446.457,371.063 443.457,369.229 440.5,367.5C 439.627,365.114 438.127,363.114 436,361.5C 434.991,359.975 434.491,358.308 434.5,356.5C 437.976,362.141 442.643,366.641 448.5,370C 449.749,370.74 450.749,370.573 451.5,369.5C 453.144,370.96 454.977,372.293 457,373.5C 469.819,372.933 479.486,367.266 486,356.5C 487.339,351.264 487.839,345.93 487.5,340.5C 487.389,339.883 487.056,339.383 486.5,339C 488.236,337.061 489.236,334.728 489.5,332C 489.43,331.235 489.097,330.735 488.5,330.5C 485.929,328.769 482.929,327.769 479.5,327.5 Z"/></g>
<g><path style="opacity:1" fill="#b7aba6" d="M 488.5,330.5 C 489.097,330.735 489.43,331.235 489.5,332C 489.236,334.728 488.236,337.061 486.5,339C 487.056,339.383 487.389,339.883 487.5,340.5C 484.742,341.377 482.076,342.544 479.5,344C 477.84,345.488 476.84,347.321 476.5,349.5C 470.462,355.378 463.462,357.378 455.5,355.5C 461.948,356.44 467.615,354.773 472.5,350.5C 472.043,349.702 471.376,349.369 470.5,349.5C 477.612,345.284 481.112,338.951 481,330.5C 483.288,330.737 485.788,330.737 488.5,330.5 Z"/></g>
<g><path style="opacity:1" fill="#debfb7" d="M 479.5,327.5 C 482.929,327.769 485.929,328.769 488.5,330.5C 485.788,330.737 483.288,330.737 481,330.5C 481.112,338.951 477.612,345.284 470.5,349.5C 463.718,351.498 456.718,351.998 449.5,351C 442.668,349.008 439.001,344.508 438.5,337.5C 438.833,337.5 439.167,337.5 439.5,337.5C 440.921,340.009 442.588,342.343 444.5,344.5C 447.785,348.886 452.285,350.886 458,350.5C 462.01,350.497 465.844,349.664 469.5,348C 471.324,347.34 472.657,346.173 473.5,344.5C 474.401,343.71 475.068,342.71 475.5,341.5C 477.539,340.089 478.539,338.089 478.5,335.5C 479.473,333.052 479.806,330.385 479.5,327.5 Z"/></g>
<g><path style="opacity:1" fill="#b77753" d="M 463.5,345.5 C 463.833,346.167 464.167,346.833 464.5,347.5C 459.821,347.666 455.155,347.499 450.5,347C 449.045,344.773 447.045,343.273 444.5,342.5C 443.442,341.4 442.608,340.066 442,338.5C 441.464,331.166 442.797,331.166 446,338.5C 445.842,335.53 445.342,332.53 444.5,329.5C 444.868,328.09 445.701,327.09 447,326.5C 447.499,330.152 447.665,333.818 447.5,337.5C 450.463,337.151 452.796,338.151 454.5,340.5C 457.522,339.351 460.522,339.351 463.5,340.5C 460.428,342.414 457.095,343.748 453.5,344.5C 456.768,345.487 460.102,345.82 463.5,345.5 Z"/></g>
<g><path style="opacity:1" fill="#a55a3b" d="M 475.5,341.5 C 475.068,342.71 474.401,343.71 473.5,344.5C 470.546,345.615 467.546,346.615 464.5,347.5C 464.167,346.833 463.833,346.167 463.5,345.5C 465.807,344.347 468.14,343.18 470.5,342C 471.252,341.329 471.586,340.496 471.5,339.5C 473.448,337.68 474.448,335.346 474.5,332.5C 475.117,332.389 475.617,332.056 476,331.5C 476.543,334.868 476.376,338.201 475.5,341.5 Z"/></g>
<g><path style="opacity:1" fill="#9c5f47" d="M 444.5,342.5 C 447.045,343.273 449.045,344.773 450.5,347C 455.155,347.499 459.821,347.666 464.5,347.5C 467.546,346.615 470.546,345.615 473.5,344.5C 472.657,346.173 471.324,347.34 469.5,348C 465.844,349.664 462.01,350.497 458,350.5C 452.285,350.886 447.785,348.886 444.5,344.5C 444.5,343.833 444.5,343.167 444.5,342.5 Z"/></g>
<g><path style="opacity:1" fill="#dbcfcf" d="M 438.5,337.5 C 439.001,344.508 442.668,349.008 449.5,351C 456.718,351.998 463.718,351.498 470.5,349.5C 471.376,349.369 472.043,349.702 472.5,350.5C 467.615,354.773 461.948,356.44 455.5,355.5C 452.744,353.796 449.744,352.463 446.5,351.5C 444.849,350.03 443.015,348.697 441,347.5C 440.833,347.833 440.667,348.167 440.5,348.5C 444.537,350.119 445.204,352.453 442.5,355.5C 435.942,352.241 434.608,353.408 438.5,359C 439.76,360.113 440.927,360.28 442,359.5C 445.399,362.729 448.565,366.062 451.5,369.5C 450.749,370.573 449.749,370.74 448.5,370C 442.643,366.641 437.976,362.141 434.5,356.5C 432.949,349.239 433.782,342.239 437,335.5C 437.278,336.416 437.778,337.082 438.5,337.5 Z"/></g>
<g><path style="opacity:1" fill="#cfc7c2" d="M 476.5,349.5 C 478.84,350.572 479.173,352.239 477.5,354.5C 472.275,359.659 465.941,361.993 458.5,361.5C 454.528,361.508 450.861,360.508 447.5,358.5C 446.717,356.657 446.05,354.657 445.5,352.5C 445.624,351.893 445.957,351.56 446.5,351.5C 449.744,352.463 452.744,353.796 455.5,355.5C 463.462,357.378 470.462,355.378 476.5,349.5 Z"/></g>
<g><path style="opacity:1" fill="#aeaaad" d="M 446.5,351.5 C 445.957,351.56 445.624,351.893 445.5,352.5C 446.05,354.657 446.717,356.657 447.5,358.5C 447.859,360.371 448.859,361.871 450.5,363C 449.833,363.333 449.167,363.667 448.5,364C 449.758,365.741 450.758,367.574 451.5,369.5C 448.565,366.062 445.399,362.729 442,359.5C 440.927,360.28 439.76,360.113 438.5,359C 434.608,353.408 435.942,352.241 442.5,355.5C 445.204,352.453 444.537,350.119 440.5,348.5C 440.667,348.167 440.833,347.833 441,347.5C 443.015,348.697 444.849,350.03 446.5,351.5 Z"/></g>
<g><path style="opacity:1" fill="#e6d8de" d="M 487.5,340.5 C 487.839,345.93 487.339,351.264 486,356.5C 479.486,367.266 469.819,372.933 457,373.5C 454.977,372.293 453.144,370.96 451.5,369.5C 450.758,367.574 449.758,365.741 448.5,364C 449.167,363.667 449.833,363.333 450.5,363C 448.859,361.871 447.859,360.371 447.5,358.5C 450.861,360.508 454.528,361.508 458.5,361.5C 465.941,361.993 472.275,359.659 477.5,354.5C 479.173,352.239 478.84,350.572 476.5,349.5C 476.84,347.321 477.84,345.488 479.5,344C 482.076,342.544 484.742,341.377 487.5,340.5 Z"/></g>
</svg>
